<svg width="1280" height="420" viewBox="0 0 1280 420" fill="none" xmlns="http://www.w3.org/2000/svg" role="img" aria-label="Alert Rule Audit cover">

  <defs>
    <linearGradient id="g" x1="0" x2="1" y1="0" y2="1">
      <stop offset="0" stop-color="#f59e0b" stop-opacity=".34"/>
      <stop offset=".54" stop-color="#101014" stop-opacity="0"/>
      <stop offset="1" stop-color="#ef4444" stop-opacity=".30"/>
    </linearGradient>
    <filter id="grain" x="-20%" y="-20%" width="140%" height="140%">
      <feTurbulence type="fractalNoise" baseFrequency=".85" numOctaves="2" seed="8" result="noise"/>
      <feColorMatrix type="saturate" values="0"/>
      <feComponentTransfer><feFuncA type="table" tableValues="0 .10"/></feComponentTransfer>
      <feBlend mode="soft-light" in2="SourceGraphic"/>
    </filter>
  </defs>
  <rect width="1280" height="420" rx="30" fill="#101014"/>
  <rect width="1280" height="420" rx="30" fill="url(#g)" filter="url(#grain)"/>

  <rect x="82" y="74" width="300" height="272" rx="30" fill="#f59e0b" opacity=".18"/>
  <path d="M132 142h168M132 202h108M132 262h202" stroke="#fafafa" stroke-width="15" stroke-linecap="round"/>
  <text x="446" y="184" fill="#fafafa" font-family="Sora, ui-sans-serif, system-ui" font-size="60" font-weight="850">Alert Rule Audit</text>
  <text x="450" y="242" fill="#d6d3d1" font-family="Sora, ui-sans-serif, system-ui" font-size="23">Audit alert rules for noise, missing runbooks, and...</text>
  <rect x="450" y="278" width="360" height="44" rx="22" fill="#ef4444" opacity=".18"/>
  <text x="470" y="307" fill="#fafafa" font-family="ui-monospace, SFMono-Regular, Menlo, monospace" font-size="16" font-weight="800">INCIDENT PRACTICE</text>
  <rect x="846" y="122" width="156" height="28" rx="8" fill="#f59e0b" opacity=".85"/>
  <text x="862" y="141" fill="#fafafa" font-family="ui-monospace, SFMono-Regular, Menlo, monospace" font-size="13">missing-runbook</text>
  <rect x="846" y="176" width="208" height="28" rx="8" fill="#ef4444" opacity=".85"/>
  <text x="862" y="195" fill="#fafafa" font-family="ui-monospace, SFMono-Regular, Menlo, monospace" font-size="13">short-window</text>
  <rect x="846" y="230" width="270" height="28" rx="8" fill="#f59e0b" opacity=".85"/>
  <text x="862" y="249" fill="#fafafa" font-family="ui-monospace, SFMono-Regular, Menlo, monospace" font-size="13">weak-severity</text>
</svg>
